<svg width="21" height="20" viewBox="0 0 21 20" fill="none" xmlns="http://www.w3.org/2000/svg">
<path d="M14.4012 3.62122C12.6752 4.31171 10.8266 4.76103 8.8968 4.92754C8.34056 4.97554 7.77746 5.00005 7.2085 5.00005H6.5835C4.16725 5.00005 2.2085 6.9588 2.2085 9.37505C2.2085 11.5414 3.78303 13.34 5.85014 13.6889C6.1287 14.8297 6.51521 15.9282 6.9982 16.9729C7.38492 17.8093 8.39334 18.0729 9.15041 17.6358L9.69733 17.3201C10.4307 16.8966 10.6687 15.9928 10.3407 15.2633C10.145 14.828 9.97035 14.3812 9.81801 13.9242C11.4158 14.1392 12.9517 14.549 14.4012 15.1289C15.0059 13.3211 15.3335 11.3863 15.3335 9.37503C15.3335 7.36377 15.0059 5.42901 14.4012 3.62122Z" fill="#262626"/>
<path d="M15.5507 3.1173C16.2202 5.08038 16.5835 7.18528 16.5835 9.37503C16.5835 11.5648 16.2202 13.6697 15.5507 15.6328C15.5047 15.7676 15.4574 15.9018 15.4086 16.0352C15.2899 16.3594 15.4565 16.7183 15.7807 16.837C16.1048 16.9556 16.4638 16.789 16.5824 16.4649C16.6991 16.1461 16.8081 15.8237 16.9093 15.4978C17.3457 14.0922 17.6358 12.6224 17.7618 11.1065C18.1926 10.6578 18.4585 10.0473 18.4585 9.37505C18.4585 8.70284 18.1926 8.0923 17.7618 7.64359C17.6358 6.12769 17.3457 4.65793 16.9093 3.25231C16.8081 2.92641 16.6991 2.60397 16.5824 2.28521C16.4638 1.96106 16.1048 1.79448 15.7807 1.91313C15.4565 2.03179 15.2899 2.39074 15.4086 2.71489C15.4574 2.84832 15.5047 2.98251 15.5507 3.1173Z" fill="#262626"/>
</svg>
