<svg width="21" height="20" viewBox="0 0 21 20" fill="none" xmlns="http://www.w3.org/2000/svg">
<path d="M10.3335 1.875C10.6787 1.875 10.9585 2.15482 10.9585 2.5V4.375C10.9585 4.72018 10.6787 5 10.3335 5C9.98832 5 9.7085 4.72018 9.7085 4.375V2.5C9.7085 2.15482 9.98832 1.875 10.3335 1.875Z" fill="#262626"/>
<path d="M6.5835 10C6.5835 7.92893 8.26243 6.25 10.3335 6.25C12.4046 6.25 14.0835 7.92893 14.0835 10C14.0835 12.0711 12.4046 13.75 10.3335 13.75C8.26243 13.75 6.5835 12.0711 6.5835 10Z" fill="#262626"/>
<path d="M16.0788 5.13862C16.3229 4.89454 16.3229 4.49881 16.0788 4.25473C15.8347 4.01065 15.439 4.01065 15.1949 4.25473L13.8691 5.58056C13.625 5.82463 13.625 6.22036 13.8691 6.46444C14.1132 6.70852 14.5089 6.70852 14.753 6.46444L16.0788 5.13862Z" fill="#262626"/>
<path d="M18.4585 10C18.4585 10.3452 18.1787 10.625 17.8335 10.625H15.9585C15.6133 10.625 15.3335 10.3452 15.3335 10C15.3335 9.65482 15.6133 9.375 15.9585 9.375H17.8335C18.1787 9.375 18.4585 9.65482 18.4585 10Z" fill="#262626"/>
<path d="M15.1948 15.7452C15.4389 15.9893 15.8346 15.9893 16.0787 15.7452C16.3228 15.5011 16.3228 15.1054 16.0787 14.8613L14.7529 13.5355C14.5088 13.2914 14.1131 13.2914 13.869 13.5355C13.6249 13.7796 13.6249 14.1753 13.869 14.4194L15.1948 15.7452Z" fill="#262626"/>
<path d="M10.3335 15C10.6787 15 10.9585 15.2798 10.9585 15.625V17.5C10.9585 17.8452 10.6787 18.125 10.3335 18.125C9.98832 18.125 9.7085 17.8452 9.7085 17.5V15.625C9.7085 15.2798 9.98832 15 10.3335 15Z" fill="#262626"/>
<path d="M6.79808 14.4194C7.04216 14.1753 7.04216 13.7796 6.79808 13.5355C6.554 13.2914 6.15828 13.2914 5.9142 13.5355L4.58837 14.8613C4.3443 15.1054 4.3443 15.5011 4.58837 15.7452C4.83245 15.9893 5.22818 15.9893 5.47226 15.7452L6.79808 14.4194Z" fill="#262626"/>
<path d="M5.3335 10C5.3335 10.3452 5.05367 10.625 4.7085 10.625H2.8335C2.48832 10.625 2.2085 10.3452 2.2085 10C2.2085 9.65482 2.48832 9.375 2.8335 9.375H4.7085C5.05367 9.375 5.3335 9.65482 5.3335 10Z" fill="#262626"/>
<path d="M5.9141 6.46443C6.15818 6.70851 6.55391 6.70851 6.79799 6.46443C7.04207 6.22036 7.04207 5.82463 6.79799 5.58055L5.47216 4.25472C5.22808 4.01065 4.83236 4.01065 4.58828 4.25472C4.3442 4.4988 4.3442 4.89453 4.58828 5.13861L5.9141 6.46443Z" fill="#262626"/>
</svg>
