<svg width="60" height="60" viewBox="0 0 60 60" fill="none" xmlns="http://www.w3.org/2000/svg">
<path d="M21.062 47.4124C21.062 48.7931 19.9427 49.9124 18.562 49.9124H7.29346C5.91275 49.9124 4.79346 48.7931 4.79346 47.4124V38.3049C4.79346 35.049 5.3884 31.673 6.56982 28.1799L6.5708 28.177C7.78639 24.652 9.43114 21.3289 11.5044 18.2083V18.2063C13.3027 15.5141 15.2876 13.1769 17.4585 11.1975C18.2917 10.4381 19.521 10.3895 20.436 10.9993L26.4624 15.0149C27.6028 15.7748 27.9072 17.2973 27.2124 18.4543C25.5936 21.1496 24.202 23.9429 23.0405 26.8352L23.0415 26.8362C21.6896 30.2542 21.0271 34.0373 21.062 38.1917V47.4124ZM47.9419 47.4124C47.9419 48.7931 46.8226 49.9124 45.4419 49.9124H34.1733C32.7926 49.9124 31.6733 48.7931 31.6733 47.4124V38.3049C31.6733 35.049 32.2673 31.673 33.4487 28.1799L33.4497 28.177C34.6653 24.652 36.3101 21.3288 38.3833 18.2083L38.3843 18.2063C40.1826 15.5142 42.1666 13.1768 44.3374 11.1975C45.1706 10.4378 46.4007 10.3894 47.3159 10.9993L53.3423 15.0149C54.4826 15.7748 54.7869 17.2973 54.0923 18.4543C52.4735 21.1495 51.0818 23.943 49.9204 26.8352L49.9214 26.8362C48.5694 30.2542 47.907 34.0373 47.9419 38.1917V47.4124Z" fill="#FFE566" stroke="#FFE566"/>
</svg>
