<svg width="21" height="20" viewBox="0 0 21 20" fill="none" xmlns="http://www.w3.org/2000/svg">
<path fill-rule="evenodd" clip-rule="evenodd" d="M8.1665 3.75C8.44555 3.75 8.6908 3.93499 8.76746 4.2033L9.44512 6.57512C9.74173 7.61327 10.5532 8.42477 11.5914 8.72138L13.9632 9.39905C14.2315 9.47571 14.4165 9.72095 14.4165 10C14.4165 10.2791 14.2315 10.5243 13.9632 10.601L11.5914 11.2786C10.5532 11.5752 9.74173 12.3867 9.44512 13.4249L8.76746 15.7967C8.6908 16.065 8.44555 16.25 8.1665 16.25C7.88745 16.25 7.64221 16.065 7.56555 15.7967L6.88789 13.4249C6.59127 12.3867 5.77978 11.5752 4.74163 11.2786L2.3698 10.601C2.10149 10.5243 1.9165 10.2791 1.9165 10C1.9165 9.72095 2.10149 9.47571 2.3698 9.39905L4.74163 8.72138C5.77978 8.42477 6.59127 7.61327 6.88789 6.57512L7.56555 4.2033C7.64221 3.93499 7.88745 3.75 8.1665 3.75Z" fill="#262626"/>
<path fill-rule="evenodd" clip-rule="evenodd" d="M15.6665 1.25C15.9533 1.25 16.2033 1.44519 16.2728 1.72342L16.4886 2.5863C16.6845 3.37005 17.2965 3.982 18.0802 4.17794L18.9431 4.39366C19.2213 4.46322 19.4165 4.71321 19.4165 5C19.4165 5.28679 19.2213 5.53678 18.9431 5.60634L18.0802 5.82206C17.2965 6.018 16.6845 6.62995 16.4886 7.4137L16.2728 8.27658C16.2033 8.55481 15.9533 8.75 15.6665 8.75C15.3797 8.75 15.1297 8.55481 15.0602 8.27658L14.8444 7.4137C14.6485 6.62995 14.0366 6.018 13.2528 5.82206L12.3899 5.60634C12.1117 5.53678 11.9165 5.28679 11.9165 5C11.9165 4.71321 12.1117 4.46322 12.3899 4.39366L13.2528 4.17794C14.0366 3.982 14.6485 3.37005 14.8444 2.5863L15.0602 1.72342C15.1297 1.44519 15.3797 1.25 15.6665 1.25Z" fill="#262626"/>
<path fill-rule="evenodd" clip-rule="evenodd" d="M14.4165 12.5C14.6855 12.5 14.9244 12.6721 15.0094 12.9274L15.338 13.913C15.4624 14.2862 15.7553 14.5791 16.1285 14.7035L17.1141 15.0321C17.3694 15.1171 17.5415 15.356 17.5415 15.625C17.5415 15.894 17.3694 16.1329 17.1141 16.2179L16.1285 16.5465C15.7553 16.6709 15.4624 16.9638 15.338 17.337L15.0094 18.3226C14.9244 18.5779 14.6855 18.75 14.4165 18.75C14.1475 18.75 13.9086 18.5779 13.8236 18.3226L13.495 17.337C13.3706 16.9638 13.0777 16.6709 12.7045 16.5465L11.7189 16.2179C11.4636 16.1329 11.2915 15.894 11.2915 15.625C11.2915 15.356 11.4636 15.1171 11.7189 15.0321L12.7045 14.7035C13.0777 14.5791 13.3706 14.2862 13.495 13.913L13.8236 12.9274C13.9086 12.6721 14.1475 12.5 14.4165 12.5Z" fill="#262626"/>
</svg>
