<svg width="21" height="20" viewBox="0 0 21 20" fill="none" xmlns="http://www.w3.org/2000/svg">
<path fill-rule="evenodd" clip-rule="evenodd" d="M16.874 7.04015L14.323 9.16597C14.4477 9.71453 14.4477 10.2855 14.323 10.834L16.874 12.9599C17.764 11.0931 17.764 8.90687 16.874 7.04015ZM13.6264 16.2075L11.5005 13.6565C10.952 13.7812 10.381 13.7812 9.83247 13.6565L7.70665 16.2075C9.57337 17.0975 11.7596 17.0975 13.6264 16.2075ZM4.45902 12.9599L7.01001 10.834C6.88534 10.2855 6.88534 9.71453 7.01001 9.16597L4.45902 7.04015C3.569 8.90687 3.569 11.0931 4.45902 12.9599ZM7.70665 3.79252L9.83247 6.3435C10.381 6.21883 10.952 6.21883 11.5005 6.3435L13.6264 3.79252C11.7596 2.90249 9.57337 2.90249 7.70665 3.79252ZM14.9211 3.076C15.4519 3.40271 15.9528 3.79577 16.4117 4.25476C16.8707 4.71374 17.2638 5.21463 17.5905 5.7454C19.1918 8.34692 19.1918 11.6531 17.5905 14.2546C17.2638 14.7854 16.8707 15.2863 16.4117 15.7452C15.9528 16.2042 15.4519 16.5973 14.9211 16.924C12.3196 18.5253 9.01343 18.5253 6.41191 16.924C5.88113 16.5973 5.38025 16.2042 4.92126 15.7452C4.46228 15.2863 4.06921 14.7854 3.7425 14.2546C2.14117 11.6531 2.14117 8.34692 3.7425 5.7454C4.06921 5.21463 4.46228 4.71374 4.92126 4.25476C5.38025 3.79577 5.88113 3.40271 6.41191 3.076C9.01343 1.47467 12.3196 1.47467 14.9211 3.076ZM12.4343 8.23223C12.163 7.96094 11.8463 7.76589 11.5094 7.64559C10.9657 7.45147 10.3673 7.45147 9.82363 7.64559C9.4867 7.76589 9.17003 7.96094 8.89874 8.23223C8.62744 8.50353 8.43239 8.8202 8.3121 9.15712C8.11797 9.70083 8.11797 10.2992 8.3121 10.8429C8.43239 11.1798 8.62744 11.4965 8.89874 11.7678C9.17003 12.0391 9.4867 12.2341 9.82363 12.3544C10.3673 12.5485 10.9657 12.5485 11.5094 12.3544C11.8463 12.2341 12.163 12.0391 12.4343 11.7678C12.7056 11.4965 12.9006 11.1798 13.0209 10.8429C13.215 10.2992 13.215 9.70083 13.0209 9.15712C12.9006 8.8202 12.7056 8.50353 12.4343 8.23223Z" fill="#262626"/>
</svg>
